<svg width="174" height="36" viewBox="0 0 174 36" fill="none" xmlns="http://www.w3.org/2000/svg">
<path fill-rule="evenodd" clip-rule="evenodd" d="M42.7119 5.28815C43.8353 5.28815 44.7458 6.19876 44.7458 7.32205V28.678C44.7458 29.8013 43.8353 30.7119 42.7119 30.7119H37.2769C37.5016 31.1903 37.6272 31.7246 37.6272 32.2881C37.6272 34.3381 35.9653 36 33.9153 36C31.8653 36 30.2035 34.3381 30.2035 32.2881C30.2035 31.7246 30.3291 31.1903 30.5538 30.7119H25.2204C24.0971 30.7119 23.1865 29.8013 23.1865 28.678V23.3896C26.1117 23.3623 28.4747 20.9825 28.4747 18.0509C28.4747 15.1192 26.1117 12.7394 23.1865 12.7121V7.32205C23.1865 6.19876 24.0971 5.28815 25.2204 5.28815H42.7119ZM28.1696 7.93221C28.1696 7.48291 27.8053 7.11866 27.356 7.11866H25.9323C25.483 7.11866 25.1187 7.48291 25.1187 7.93221V9.35594C25.1187 9.80525 25.483 10.1695 25.9323 10.1695H27.356C27.8053 10.1695 28.1696 9.80525 28.1696 9.35594V7.93221ZM32.2374 7.11866C32.6867 7.11866 33.0509 7.48291 33.0509 7.93221V9.35594C33.0509 9.80525 32.6867 10.1695 32.2374 10.1695H30.8136C30.3643 10.1695 30.0001 9.80525 30.0001 9.35594V7.93221C30.0001 7.48291 30.3643 7.11866 30.8136 7.11866H32.2374ZM37.9323 7.93221C37.9323 7.48291 37.568 7.11866 37.1187 7.11866H35.695C35.2457 7.11866 34.8814 7.48291 34.8814 7.93221V9.35594C34.8814 9.80525 35.2457 10.1695 35.695 10.1695H37.1187C37.568 10.1695 37.9323 9.80525 37.9323 9.35594V7.93221ZM42.8136 7.93221C42.8136 7.48291 42.4494 7.11866 42.0001 7.11866H40.5764C40.1271 7.11866 39.7628 7.48291 39.7628 7.93221V9.35594C39.7628 9.80525 40.1271 10.1695 40.5764 10.1695H42.0001C42.4494 10.1695 42.8136 9.80525 42.8136 9.35594V7.93221ZM27.356 25.8305C27.8053 25.8305 28.1696 26.1948 28.1696 26.6441V28.0678C28.1696 28.5171 27.8053 28.8814 27.356 28.8814H25.9323C25.483 28.8814 25.1187 28.5171 25.1187 28.0678V26.6441C25.1187 26.1948 25.483 25.8305 25.9323 25.8305H27.356ZM33.0509 26.6441C33.0509 26.1948 32.6867 25.8305 32.2374 25.8305H30.8136C30.3643 25.8305 30.0001 26.1948 30.0001 26.6441V28.0678C30.0001 28.5171 30.3643 28.8814 30.8136 28.8814H32.2374C32.6867 28.8814 33.0509 28.5171 33.0509 28.0678V26.6441ZM37.1187 25.8305C37.568 25.8305 37.9323 26.1948 37.9323 26.6441V28.0678C37.9323 28.5171 37.568 28.8814 37.1187 28.8814H35.695C35.2457 28.8814 34.8814 28.5171 34.8814 28.0678V26.6441C34.8814 26.1948 35.2457 25.8305 35.695 25.8305H37.1187ZM42.0001 25.8305C42.4494 25.8305 42.8136 26.1948 42.8136 26.6441V28.0678C42.8136 28.5171 42.4494 28.8814 42.0001 28.8814H40.5764C40.1271 28.8814 39.7628 28.5171 39.7628 28.0678V26.6441C39.7628 26.1948 40.1271 25.8305 40.5764 25.8305H42.0001Z" fill="#F02718"></path>
<path fill-rule="evenodd" clip-rule="evenodd" d="M10.7288 0C12.7788 0 14.4407 1.66186 14.4407 3.71186C14.4407 4.27546 14.3151 4.8097 14.0903 5.28814H19.5254C20.6487 5.28814 21.5593 6.19874 21.5593 7.32203V14.6893C22.0378 14.4646 22.572 14.339 23.1356 14.339C25.1856 14.339 26.8475 16.0009 26.8475 18.0508C26.8475 20.1008 25.1856 21.7627 23.1356 21.7627C22.572 21.7627 22.0378 21.6371 21.5593 21.4124V28.678C21.5593 29.8013 20.6487 30.7119 19.5254 30.7119H2.0339C0.910605 30.7119 0 29.8013 0 28.678V7.32203C0 6.19874 0.910605 5.28814 2.0339 5.28814H7.36729C7.14255 4.8097 7.01695 4.27546 7.01695 3.71186C7.01695 1.66186 8.67881 0 10.7288 0ZM4.98305 7.9322C4.98305 7.48289 4.61881 7.11864 4.16949 7.11864H2.74576C2.29644 7.11864 1.9322 7.48289 1.9322 7.9322V9.35593C1.9322 9.80524 2.29644 10.1695 2.74576 10.1695H4.16949C4.61881 10.1695 4.98305 9.80524 4.98305 9.35593V7.9322ZM9.05085 7.11864C9.50017 7.11864 9.86441 7.48289 9.86441 7.9322V9.35593C9.86441 9.80524 9.50017 10.1695 9.05085 10.1695H7.62712C7.1778 10.1695 6.81356 9.80524 6.81356 9.35593V7.9322C6.81356 7.48289 7.1778 7.11864 7.62712 7.11864H9.05085ZM14.7458 7.9322C14.7458 7.48289 14.3815 7.11864 13.9322 7.11864H12.5085C12.0592 7.11864 11.6949 7.48289 11.6949 7.9322V9.35593C11.6949 9.80524 12.0592 10.1695 12.5085 10.1695H13.9322C14.3815 10.1695 14.7458 9.80524 14.7458 9.35593V7.9322ZM19.6271 7.9322C19.6271 7.48289 19.2628 7.11864 18.8136 7.11864H17.3898C16.9405 7.11864 16.5763 7.48289 16.5763 7.9322V9.35593C16.5763 9.80524 16.9405 10.1695 17.3898 10.1695H18.8136C19.2628 10.1695 19.6271 9.80524 19.6271 9.35593V7.9322ZM4.98305 26.6441C4.98305 26.1948 4.61881 25.8305 4.16949 25.8305H2.74576C2.29644 25.8305 1.9322 26.1948 1.9322 26.6441V28.0678C1.9322 28.5171 2.29644 28.8814 2.74576 28.8814H4.16949C4.61881 28.8814 4.98305 28.5171 4.98305 28.0678V26.6441ZM9.05085 25.8305C9.50017 25.8305 9.86441 26.1948 9.86441 26.6441V28.0678C9.86441 28.5171 9.50017 28.8814 9.05085 28.8814H7.62712C7.1778 28.8814 6.81356 28.5171 6.81356 28.0678V26.6441C6.81356 26.1948 7.1778 25.8305 7.62712 25.8305H9.05085ZM13.9322 25.8305C14.3815 25.8305 14.7458 26.1948 14.7458 26.6441V28.0678C14.7458 28.5171 14.3815 28.8814 13.9322 28.8814H12.5085C12.0592 28.8814 11.6949 28.5171 11.6949 28.0678V26.6441C11.6949 26.1948 12.0592 25.8305 12.5085 25.8305H13.9322ZM19.6271 26.6441C19.6271 26.1948 19.2628 25.8305 18.8136 25.8305H17.3898C16.9405 25.8305 16.5763 26.1948 16.5763 26.6441V28.0678C16.5763 28.5171 16.9405 28.8814 17.3898 28.8814H18.8136C19.2628 28.8814 19.6271 28.5171 19.6271 28.0678V26.6441Z" fill="#FFD600"></path>
<path d="M56.87 24V19.59H59.48C60.686 19.59 61.658 19.194 62.414 18.42C63.17 17.628 63.548 16.62 63.548 15.378C63.548 14.136 63.17 13.146 62.414 12.372C61.658 11.598 60.686 11.22 59.48 11.22H54.548V24H56.87ZM56.87 13.218H59.084C60.38 13.218 61.19 14.064 61.19 15.378C61.19 16.728 60.398 17.574 59.048 17.574H56.87V13.218ZM65.2082 20.724C65.2082 23.046 66.2702 24.216 68.3942 24.216C69.8522 24.216 71.0942 23.316 71.5802 22.29H71.6162L71.5622 22.92V24H73.7582V14.82H71.4902V19.032C71.4902 19.896 71.2562 20.634 70.7882 21.228C70.3382 21.822 69.7082 22.128 68.9162 22.128C67.8542 22.128 67.4942 21.48 67.4942 20.256V14.82H65.2082V20.724ZM83.7558 24V22.056H79.5798C79.1838 22.056 78.8958 22.074 78.7158 22.11V22.074L78.8238 21.984C78.9678 21.84 79.2738 21.534 79.5078 21.228L83.6298 16.062V14.82H75.8178V16.764H79.6878C80.0838 16.764 80.3718 16.746 80.5518 16.728V16.764L80.4438 16.872C80.3178 16.998 80.0118 17.304 79.7778 17.61L75.6378 22.776V24H83.7558ZM93.1953 24V22.056H89.0193C88.6233 22.056 88.3353 22.074 88.1553 22.11V22.074L88.2633 21.984C88.4073 21.84 88.7133 21.534 88.9473 21.228L93.0693 16.062V14.82H85.2573V16.764H89.1273C89.5233 16.764 89.8113 16.746 89.9913 16.728V16.764L89.8833 16.872C89.7573 16.998 89.4513 17.304 89.2173 17.61L85.0773 22.776V24H93.1953ZM95.1107 21.138C95.1107 22.38 95.4707 23.244 96.0647 23.622C96.6587 23.982 97.1987 24.09 97.9367 24.09C98.0987 24.09 98.3327 24.072 98.6567 24.036V22.038C98.5667 22.056 98.4587 22.056 98.3147 22.056C97.6667 22.056 97.3787 21.75 97.3787 20.796V11.22H95.1107V21.138ZM99.7558 19.41C99.7558 20.76 100.206 21.894 101.124 22.83C102.042 23.748 103.23 24.216 104.706 24.216C106.056 24.216 107.478 23.712 108.396 22.902L107.496 21.264C106.65 21.93 105.786 22.272 104.868 22.272C103.41 22.272 102.258 21.372 102.114 19.842H108.432C108.486 19.464 108.504 19.158 108.504 18.96C108.504 17.7 108.144 16.656 107.424 15.846C106.704 15.018 105.714 14.604 104.436 14.604C103.05 14.604 101.934 15.054 101.052 15.954C100.188 16.836 99.7558 17.988 99.7558 19.41ZM102.168 18.276C102.384 17.106 103.23 16.332 104.382 16.332C105.444 16.332 106.2 17.07 106.218 18.276H102.168ZM117.064 24L117.586 16.854C117.64 16.296 117.64 15.63 117.604 14.856H117.64L118.342 16.854L120.412 21.804H122.428L124.498 16.854C124.696 16.368 124.93 15.702 125.2 14.874H125.236V15.18C125.218 15.594 125.2 16.35 125.254 16.854L125.776 24H128.098L127.054 11.22H124.588L122.068 17.538C121.87 18.042 121.672 18.672 121.438 19.41H121.402L120.772 17.538L118.252 11.22H115.786L114.742 24H117.064ZM134.713 14.604C133.309 14.604 132.121 15.054 131.149 15.972C130.177 16.872 129.691 18.024 129.691 19.41C129.691 20.796 130.177 21.948 131.149 22.866C132.121 23.766 133.309 24.216 134.731 24.216C136.153 24.216 137.341 23.766 138.313 22.866C139.285 21.948 139.771 20.796 139.771 19.41C139.771 18.024 139.285 16.872 138.295 15.972C137.323 15.054 136.135 14.604 134.713 14.604ZM132.013 19.41C132.013 18.582 132.283 17.898 132.805 17.358C133.327 16.818 133.975 16.548 134.731 16.548C135.487 16.548 136.135 16.818 136.657 17.358C137.197 17.898 137.467 18.582 137.467 19.41C137.467 20.256 137.197 20.94 136.675 21.48C136.153 22.002 135.505 22.272 134.731 22.272C133.957 22.272 133.309 22.002 132.787 21.48C132.265 20.94 132.013 20.256 132.013 19.41ZM146.452 24L149.746 14.82H147.334L145.426 20.508C145.318 20.868 145.21 21.336 145.102 21.894H145.066L144.742 20.508L142.833 14.82H140.422L143.752 24H146.452ZM153.506 13.254V11.22H151.22V13.254H153.506ZM153.506 24V14.82H151.22V24H153.506ZM155.391 19.41C155.391 20.76 155.841 21.894 156.759 22.83C157.677 23.748 158.865 24.216 160.341 24.216C161.691 24.216 163.113 23.712 164.031 22.902L163.131 21.264C162.285 21.93 161.421 22.272 160.503 22.272C159.045 22.272 157.893 21.372 157.749 19.842H164.067C164.121 19.464 164.139 19.158 164.139 18.96C164.139 17.7 163.779 16.656 163.059 15.846C162.339 15.018 161.349 14.604 160.071 14.604C158.685 14.604 157.569 15.054 156.687 15.954C155.823 16.836 155.391 17.988 155.391 19.41ZM157.803 18.276C158.019 17.106 158.865 16.332 160.017 16.332C161.079 16.332 161.835 17.07 161.853 18.276H157.803ZM165.3 22.866C166.236 23.766 167.442 24.216 168.9 24.216C169.944 24.216 170.79 23.946 171.42 23.424C172.05 22.884 172.374 22.2 172.374 21.39C172.392 19.644 170.736 18.96 169.422 18.546C168.54 18.24 167.82 17.862 167.82 17.34C167.82 16.746 168.252 16.458 169.098 16.458C169.908 16.458 170.898 16.8 171.42 17.25L172.266 15.648C171.474 14.946 170.448 14.604 169.17 14.604C168.162 14.604 167.316 14.856 166.65 15.342C165.984 15.828 165.66 16.494 165.66 17.358C165.624 19.086 167.334 19.824 168.612 20.238C169.494 20.544 170.214 20.922 170.214 21.444C170.214 22.02 169.746 22.362 168.936 22.362C167.928 22.362 167.064 22.02 166.326 21.354L165.3 22.866Z" fill="white"></path>
</svg>